<?xml version="1.0" encoding="UTF-8"?>
<!DOCTYPE svg PUBLIC "-//W3C//DTD SVG 1.1//EN" "http://www.w3.org/Graphics/SVG/1.1/DTD/svg11.dtd">
<!-- Creator: CorelDRAW -->
<svg xmlns="http://www.w3.org/2000/svg" xml:space="preserve" width="139.547mm" height="194.303mm" version="1.1" style="shape-rendering:geometricPrecision; text-rendering:geometricPrecision; image-rendering:optimizeQuality; fill-rule:evenodd; clip-rule:evenodd"
viewBox="0 0 17498.37 24364.43"
 xmlns:xlink="http://www.w3.org/1999/xlink"
 xmlns:xodm="http://www.corel.com/coreldraw/odm/2003">
 <defs>
  <style type="text/css">
   <![CDATA[
    .fil0 {fill:#115173}
   ]]>
  </style>
 </defs>
 <g id="Layer_x0020_1">
  <metadata id="CorelCorpID_0Corel-Layer"/>
  <path class="fil0" d="M8789.44 0l-77.36 0c-211.8,205.63 -523.56,348.66 -776.46,518.43 -1411.97,947.79 -831.49,554.7 -3108.88,372.36 -48.09,132.33 -955.71,1635.59 -1054.65,1746.59 -146.3,164.15 -1697.34,603.31 -2048.57,759.11 -36.92,409.16 -82.86,804.45 -126.37,1214.26 -63.4,597.16 -1.05,791.2 -275.53,1048.47l-1317.35 1336.05c94.61,357.65 689.11,1788.43 685.68,1996.87 -4.44,268.96 -601.69,1583.26 -689.95,2008.6 444.55,436.71 883.61,867.8 1347.12,1302.72 244.02,228.94 196.17,520.07 253.86,1079.67 33,319.83 41.64,925.53 145.98,1177.87 373.81,267.21 1807.7,504.75 2034.45,780.21l1071.52 1731.12c378.21,-37.27 756.8,-87.5 1134.34,-132.06 351.68,-41.52 850.12,-197.93 1151.14,-6.96 268.12,170.15 515.92,330.4 784.84,500.77 212.37,134.54 612.46,426.31 826.03,513.1l1607.45 -1016.64c308.63,-202.56 1839.08,98.18 2288.9,141.8l1071.59 -1730.97c237.27,-285.16 1663.19,-501.71 2032.51,-781.28 74.35,-93.64 180.48,-1467.96 211.34,-1790.32 29.84,-311.72 14.14,-299.44 191.16,-465.5 455.41,-427.22 922.12,-865.66 1346.14,-1302.78 -87.32,-423.66 -685.52,-1740.62 -690.16,-2008.77 -3.72,-216.68 592.24,-1630.65 685.33,-1997.44 -132.99,-184.28 -476.42,-480.35 -662.07,-659.17 -233.42,-224.83 -417.11,-457.07 -652.36,-678.76 -279.05,-262.95 -211.18,-418.36 -278.1,-1046.55 -43.74,-410.46 -89.51,-806.35 -125.24,-1216.14 -373.22,-178.28 -1881.25,-573.8 -2048.82,-758.63 -96.69,-106.67 -1009.65,-1619.09 -1054.76,-1745.22l-1776.39 210.4c-514.54,62.2 -522.5,-46.09 -1308.12,-561.14 -275.92,-180.89 -573.9,-334.58 -798.23,-540.05zm-495.24 2844.43c-3257.64,288.24 -5963.46,3022.03 -5683.41,6627.23 249.73,3215.14 3090.16,5950.15 6646.99,5647.3 3221.63,-274.34 5904.9,-3072.99 5628.58,-6647.33 -245.45,-3175.03 -3104.53,-5935.78 -6592.16,-5627.2zm90.17 1425.19c-2489.04,210.16 -4573.15,2343.31 -4347.96,5107.07 201.19,2469.07 2390.3,4553.92 5131.67,4316.11 2458.57,-213.26 4526.18,-2388.61 4292.04,-5129.1 -208.37,-2438.67 -2371.91,-4522.35 -5075.75,-4294.07zm2481.01 20094.8l14.72 0c152.35,-162.76 412.93,-337.16 608.96,-495.86l1773.23 -1416.19c322.22,-255.2 256.53,-282 776.53,-250.07l3060.07 165.16 -1925.95 -6054.3c-89.49,17.94 -345.07,88.14 -409.2,122.86 -146.75,79.47 -1271.54,1981.13 -1367.31,2152.95 -716.14,15.2 -1711.56,-285.31 -2410.67,-273.15 -341.31,5.94 -1328.62,856.41 -1734.49,995.78l1614.09 5052.82zm-4247.67 0l15.65 0 1603.05 -5058.12c-392.33,-142.95 -1392.57,-986.52 -1723.07,-990.49 -702.39,-8.41 -1677.23,284.13 -2411.4,272.98 -239.83,-438.04 -529.5,-847.88 -776.51,-1268.05 -423.04,-719.7 -465.7,-926.2 -991.21,-1004.2l-1925.42 6052.4 3101.65 -169.71c471.87,-31.42 437.5,26.24 726.82,252.23l2380.45 1912.96z"/>
 </g>
</svg>
