<?xml version="1.0" encoding="UTF-8"?>
<!DOCTYPE svg PUBLIC "-//W3C//DTD SVG 1.1//EN" "http://www.w3.org/Graphics/SVG/1.1/DTD/svg11.dtd">
<!-- Creator: CorelDRAW -->
<svg xmlns="http://www.w3.org/2000/svg" xml:space="preserve" width="201.861mm" height="226.012mm" version="1.1" style="shape-rendering:geometricPrecision; text-rendering:geometricPrecision; image-rendering:optimizeQuality; fill-rule:evenodd; clip-rule:evenodd"
viewBox="0 0 4494 5031.69"
 xmlns:xlink="http://www.w3.org/1999/xlink"
 xmlns:xodm="http://www.corel.com/coreldraw/odm/2003">
 <defs>
  <style type="text/css">
   <![CDATA[
    .fil0 {fill:#115173}
    .fil1 {fill:#115173;fill-rule:nonzero}
   ]]>
  </style>
 </defs>
 <g id="Layer_x0020_1">
  <metadata id="CorelCorpID_0Corel-Layer"/>
  <g id="_2379309479296">
   <path class="fil0" d="M2313.29 3748.42c1.52,-20.78 103.89,-161.35 121.42,-183.07 21.7,-26.89 46.1,-63.75 68.3,-87.21 27.91,-29.49 48.61,-54.29 74.22,-81.46 51.37,-54.48 70.88,-66.8 121.01,-110.58 39.53,-34.52 143.65,-95.7 197.08,-114.38 15.35,-5.37 48.42,-13.64 59.73,-19.97 -10.35,-60.61 -25.16,-94.7 -17.62,-165.11 20.63,-192.7 101.57,-255.64 180.37,-385.75 101.77,-168.01 206.45,-307.21 143.34,-567.87 -36.7,-151.58 -112.45,-252.61 -200.84,-360.9 -22.77,-27.88 -69.98,-69.65 -96.02,-93.88 -153.86,-143.09 -339.66,-174.26 -535.7,-194.06 -3.36,-0.34 -5.62,-0.45 -9.49,-1.27 -22.94,-4.9 17.52,5.27 -6.24,-1.7l-6.22 -2.29 -165.65 0c-23.06,11.11 -277.47,7.51 -484.01,183.79 -169.53,144.68 -271.74,311.87 -264.33,567.95 2.04,70.57 9.53,80.35 33.37,134.33 59.37,134.47 -35.78,199.62 -100.25,356.03 -13.66,33.14 -39.62,82.68 15.19,112.29 59.21,32 87.49,-15.89 85.01,80.56 -1.89,73.64 -14.27,92.77 47.25,116.53 2.87,36.25 -24.24,35.36 -2.93,83.37 10.95,24.68 28.86,39.32 38.86,63.86 17.92,44 -22.55,131.92 10.97,179.01 56.94,79.99 236.29,39.81 336.82,33.4 67.5,-4.31 119.32,14.24 153.52,49.27 25.95,26.58 148.34,284.37 169.64,339.19 12.99,33.44 20.48,68.78 33.2,69.92zm-534.18 -1757.92c-9.95,14.82 -64.86,5.84 -83.7,6.43l0.41 191.38c26.72,1.21 76.47,-4.74 80.76,6.78l31.17 75.95c-12.23,21.4 -45.4,39.99 -53.27,60.74l132.49 134.12c21.27,-9.98 39.22,-40.85 61.9,-55.22 27.82,12.78 47.98,24.1 79.68,31.43l0.14 82.67 193.73 0.46 0.17 -82.74c32.28,-8.42 51.75,-19.75 79.33,-31.58 22.67,12 40.4,43.1 60.74,53.98 14.94,-8.91 80.95,-77.88 102.27,-99.06 17.75,-17.64 27,-22 32.44,-40.41l-55.04 -53.18 32.06 -77.14c5.41,-8.64 -1.48,-6.21 17.03,-7.1l64.2 0.12 0.17 -190.37c-17.62,-1.14 -76.86,8.01 -83.81,-8.22 -6.49,-32.53 -22.99,-51 -28.63,-76.04 16.09,-18.51 39.82,-37.21 53.62,-56.23 -4.47,-10.11 1.54,-0.49 -6,-10.46l-128.3 -125.89 -56.37 54.22c-12.69,-2.51 -64.98,-25.6 -83.1,-32.11l-1.07 -81.98 -191.99 -0.83 -1.86 82.93c-13,4.47 -28.36,9.5 -42.16,14.76 -14.26,5.44 -24.6,14.46 -41.04,16.46l-55.74 -54.67c-34.3,28.03 -115.34,119.89 -135.7,131.52 7.48,23.64 38.77,43.62 53.91,62.99 -7.97,27.82 -23.66,44.8 -28.43,76.31zm1041.23 6.55l-44.03 18.4c-17.27,-9.4 -24.05,-21.22 -37.44,-31.81 -15.07,12.55 -80.2,75.99 -88.21,89.99 5.92,13.66 21.03,24.65 31.64,32.81l-18.56 47.61 -48.51 0.92 -0.88 128.93 44.42 1.43c10.83,7.12 20.56,34.34 22.13,46.44 -8.12,7.92 -24.31,22.03 -30.26,34.16 7.28,13.67 73.58,79.44 87.85,88.5l33.27 -30.86c11.89,1.42 39.76,11.32 48.54,22.08l0.26 42.77c19.9,5.88 65.77,2.12 88.8,2.31 52.16,0.44 40.5,3.92 40.5,-50.27 74.56,-29.07 32.6,-15.17 80.94,14.06 11.35,-6.84 80.71,-76.14 89.61,-88.61 -9.14,-12.34 -21.45,-21.18 -30.39,-34.16l16.28 -46.24 47.72 -0.8 1.7 -129.99 -49.01 -0.65 -18.44 -45.99 32.26 -33.68 -89.73 -89.42 -34.04 30.54 -45.53 -17.23 -1.84 -48.22 -128 -1.98 -1.03 48.94zm-730.3 -68.04c-220.06,55.14 -145.09,372.89 73.39,328.44 77.6,-15.79 148.21,-99.96 126.82,-198.82 -17.49,-80.83 -99.81,-154.77 -200.2,-129.62zm767.7 194.06c-130.9,40.06 -73.31,229.39 56.17,194.05 126.15,-34.43 73.4,-233.71 -56.17,-194.05zm-1081.16 72.02c-4.29,-11.53 -54.04,-5.57 -80.76,-6.78l-0.41 -191.38c18.84,-0.58 73.75,8.39 83.7,-6.43 -24.2,4.7 -63.37,-4.12 -86.13,5.73l-1.55 192.87c25.85,10.48 58.58,-0.32 85.15,6zm697.81 0c26.61,-8.44 57.3,2.12 84.06,-5.57l1.5 -193.83c-28.59,-7.34 -64.76,2.97 -87.98,-6.17 6.95,16.23 66.19,7.08 83.81,8.22l-0.17 190.37 -64.2 -0.12c-18.5,0.89 -11.62,-1.54 -17.03,7.1z"/>
   <path class="fil1" d="M2826.28 508.86l871.67 506.42c-19.75,14.92 -38.57,31.28 -56.32,49.03 -19.71,19.71 -37.71,40.76 -53.93,62.91l-373.39 -216.93 -422.28 -245.33c19.02,-49.65 30.64,-102.19 34.24,-156.1zm1194.87 462.12c130.56,0 248.78,52.93 334.35,138.5 85.57,85.57 138.5,203.78 138.5,334.35 0,130.57 -52.93,248.78 -138.5,334.35 -85.57,85.57 -203.78,138.5 -334.35,138.5 -130.57,0 -248.78,-52.93 -334.35,-138.5 -85.57,-85.57 -138.5,-203.78 -138.5,-334.35 0,-130.57 52.93,-248.78 138.5,-334.35 85.57,-85.57 203.78,-138.5 334.35,-138.5zm226.5 246.35c-57.96,-57.96 -138.05,-93.81 -226.5,-93.81 -88.45,0 -168.54,35.85 -226.5,93.81 -57.96,57.96 -93.81,138.04 -93.81,226.5 0,88.45 35.85,168.54 93.81,226.5 57.96,57.96 138.05,93.82 226.5,93.82 88.45,0 168.54,-35.86 226.5,-93.82 57.95,-57.96 93.81,-138.05 93.81,-226.5 0,-88.46 -35.86,-168.54 -93.81,-226.5zm-1956.89 -1217.32c130.57,0 248.78,52.93 334.35,138.5 85.57,85.57 138.5,203.78 138.5,334.35 0,130.56 -52.93,248.78 -138.5,334.34 -85.57,85.57 -203.78,138.5 -334.35,138.5 -130.57,0 -248.78,-52.93 -334.35,-138.5 -85.57,-85.56 -138.5,-203.78 -138.5,-334.34 0,-130.57 52.93,-248.78 138.5,-334.35 85.57,-85.57 203.78,-138.5 334.35,-138.5zm226.5 246.35c-57.96,-57.96 -138.05,-93.81 -226.5,-93.81 -88.46,0 -168.54,35.85 -226.5,93.81 -57.97,57.96 -93.82,138.05 -93.82,226.5 0,88.45 35.85,168.54 93.82,226.5 57.95,57.96 138.04,93.82 226.5,93.82 88.45,0 168.54,-35.86 226.5,-93.82 57.96,-57.96 93.81,-138.04 93.81,-226.5 0,-88.46 -35.85,-168.54 -93.81,-226.5zm-2044.42 724.63c130.56,0 248.78,52.93 334.34,138.5 85.57,85.57 138.5,203.78 138.5,334.35 0,130.57 -52.93,248.78 -138.5,334.35 -85.56,85.57 -203.78,138.5 -334.34,138.5 -130.57,0 -248.78,-52.93 -334.35,-138.5 -85.57,-85.57 -138.5,-203.78 -138.5,-334.35 0,-130.57 52.93,-248.78 138.5,-334.35 85.57,-85.57 203.78,-138.5 334.35,-138.5zm226.5 246.35c-57.96,-57.96 -138.04,-93.81 -226.5,-93.81 -88.46,0 -168.54,35.85 -226.5,93.81 -57.96,57.96 -93.81,138.04 -93.81,226.5 0,88.45 35.85,168.54 93.81,226.5 57.96,57.96 138.05,93.82 226.5,93.82 88.45,0 168.54,-35.86 226.5,-93.82 57.96,-57.96 93.82,-138.05 93.82,-226.5 0,-88.46 -35.86,-168.54 -93.82,-226.5zm-226.5 1862.62c130.56,0 248.78,52.93 334.34,138.5 85.57,85.57 138.5,203.78 138.5,334.35 0,130.56 -52.93,248.78 -138.5,334.35 -85.56,85.57 -203.78,138.5 -334.34,138.5 -130.57,0 -248.78,-52.93 -334.35,-138.5 -85.57,-85.57 -138.5,-203.78 -138.5,-334.35 0,-130.57 52.93,-248.78 138.5,-334.35 85.57,-85.57 203.78,-138.5 334.35,-138.5zm226.5 246.35c-57.96,-57.96 -138.04,-93.81 -226.5,-93.81 -88.46,0 -168.54,35.85 -226.5,93.81 -57.96,57.96 -93.81,138.04 -93.81,226.5 0,88.45 35.85,168.54 93.81,226.5 57.96,57.96 138.05,93.81 226.5,93.81 88.45,0 168.54,-35.85 226.5,-93.81 57.96,-57.96 93.82,-138.04 93.82,-226.5 0,-88.46 -35.86,-168.54 -93.82,-226.5zm1591.42 759.71c130.57,0 248.78,52.93 334.35,138.5 85.57,85.56 138.5,203.78 138.5,334.34 0,130.57 -52.93,248.78 -138.5,334.35 -85.57,85.57 -203.78,138.5 -334.35,138.5 -130.57,0 -248.78,-52.93 -334.35,-138.5 -85.57,-85.57 -138.5,-203.78 -138.5,-334.35 0,-130.57 52.93,-248.78 138.5,-334.34 85.57,-85.57 203.78,-138.5 334.35,-138.5zm226.5 246.35c-57.96,-57.96 -138.05,-93.82 -226.5,-93.82 -88.46,0 -168.54,35.85 -226.5,93.82 -57.97,57.96 -93.82,138.04 -93.82,226.5 0,88.45 35.85,168.54 93.82,226.5 57.95,57.96 138.04,93.81 226.5,93.81 88.45,0 168.54,-35.86 226.5,-93.81 57.96,-57.96 93.81,-138.05 93.81,-226.5 0,-88.45 -35.85,-168.54 -93.81,-226.5zm1503.88 -1252.4c130.56,0 248.78,52.93 334.35,138.5 85.57,85.57 138.5,203.78 138.5,334.35 0,130.56 -52.93,248.78 -138.5,334.35 -85.57,85.57 -203.78,138.5 -334.35,138.5 -130.57,0 -248.78,-52.93 -334.35,-138.5 -85.57,-85.57 -138.5,-203.78 -138.5,-334.35 0,-130.57 52.93,-248.78 138.5,-334.35 85.57,-85.57 203.78,-138.5 334.35,-138.5zm226.5 246.35c-57.96,-57.96 -138.05,-93.81 -226.5,-93.81 -88.45,0 -168.54,35.85 -226.5,93.81 -57.96,57.96 -93.81,138.04 -93.81,226.5 0,88.45 35.85,168.54 93.81,226.5 57.96,57.96 138.05,93.81 226.5,93.81 88.45,0 168.54,-35.85 226.5,-93.81 57.95,-57.96 93.81,-138.04 93.81,-226.5 0,-88.46 -35.86,-168.54 -93.81,-226.5zm42.76 -1418.08l0 1180.19c-47.46,-27.55 -98.86,-47.64 -152.53,-59.56l0 -1061.07c53.67,-11.92 105.08,-32.01 152.53,-59.56zm-557.49 2097.43l-906.1 526.42c-2.68,-54.29 -13.52,-107.31 -31.85,-157.48l816.87 -474.58c9.45,11.12 19.38,21.91 29.79,32.32 27.95,27.95 58.58,52.48 91.29,73.33zm-1978.22 526.43l-954.03 -554.28c18.06,-13.96 35.34,-29.13 51.69,-45.48 21,-21.01 40.07,-43.53 57.1,-67.3l877.09 509.57c-18.32,50.17 -29.17,103.19 -31.85,157.49zm-1463.59 -1484.41l0 -1098.7c48.67,17.5 99.99,27.95 152.53,30.79l0 1037.12c-52.54,2.84 -103.86,13.3 -152.53,30.79zm541.07 -2002.51l923.07 -536.29c3.59,53.91 15.21,106.45 34.23,156.1l-858.65 498.86c-21.93,-35.8 -48.19,-69.22 -78.47,-99.51 -6.58,-6.59 -13.31,-12.97 -20.18,-19.17z"/>
  </g>
 </g>
</svg>
