<?xml version="1.0" encoding="UTF-8"?>
<!DOCTYPE svg PUBLIC "-//W3C//DTD SVG 1.1//EN" "http://www.w3.org/Graphics/SVG/1.1/DTD/svg11.dtd">
<!-- Creator: CorelDRAW -->
<svg xmlns="http://www.w3.org/2000/svg" xml:space="preserve" width="215.446mm" height="215.369mm" version="1.1" style="shape-rendering:geometricPrecision; text-rendering:geometricPrecision; image-rendering:optimizeQuality; fill-rule:evenodd; clip-rule:evenodd"
viewBox="0 0 6643.41 6641.04"
 xmlns:xlink="http://www.w3.org/1999/xlink"
 xmlns:xodm="http://www.corel.com/coreldraw/odm/2003">
 <defs>
  <style type="text/css">
   <![CDATA[
    .fil0 {fill:#115173}
   ]]>
  </style>
 </defs>
 <g id="Layer_x0020_1">
  <metadata id="CorelCorpID_0Corel-Layer"/>
  <path class="fil0" d="M3235.45 592.61l-1.8 112.78c-660.38,-2.83 -1325.68,329.04 -1761.92,762.48 -425.28,422.54 -772.05,1108.12 -766.16,1758.69 -134.66,21.28 -524.41,6.59 -701.96,8.25l-3.61 171.31c211.23,4.39 524.8,-7.6 703.94,5.67 19.09,389.06 98.06,702.46 245.49,1018.68 409.08,877.4 1301.31,1488.15 2278.58,1506.68 30.05,111.97 0.09,546.96 9.27,703.88l169.18 -0.23c10.49,-157.24 -20.81,-595.06 10.07,-703.7 775.58,-17.03 1393.58,-405.61 1760.15,-763.97 216.68,-211.82 378.92,-463.56 517.61,-743.9 150.2,-303.63 224.76,-641.81 246.19,-1016.88 140.46,-14.04 516.61,-3.85 702.93,-5.79l-0.84 -170.65 -704.47 -2.41c6.41,-659.72 -332.21,-1332 -766.16,-1764.16 -455.54,-453.65 -1103.17,-758.33 -1761.03,-763.98l-2.6 -700.75 -172.9 -4.62 0.03 592.61zm173.45 1170.11c214.65,13.09 410.1,64.45 582.75,147.93 144.79,70 218.46,120.33 335.84,212.08 36.49,28.51 63.18,65.25 95.01,96.36 34.82,34.05 59.61,48.74 89.79,88.4 27.73,36.43 50.39,59.47 78.4,100.32 172.17,251.2 265.96,492.96 291.21,820.06l768.84 6.61c-32.31,-1207.33 -1042.28,-2212.37 -2242.93,-2240.64l1.1 768.88zm6.55 3117.49c-19.14,75.9 -11.44,659.1 -4.75,768.93 718.7,-44.01 1250.34,-321.91 1694.79,-827.3 319.11,-362.88 528.1,-906.85 544.61,-1410.45l-767.71 -3.54c-38.17,448.71 -231.29,799.69 -454.56,1016.22 -234.26,227.18 -543.39,422 -1012.37,456.14zm-182.33 768.59c7.63,-102.04 13.11,-697.25 -4.59,-768.24 -806.61,-64.03 -1406.29,-665.22 -1467.04,-1467.28l-767.59 -5.67c7.33,331.31 96.5,635.79 216.48,902.99 351.05,781.66 1144.97,1290.53 2022.75,1338.2zm-2241.44 -2416.97l769.91 2.39c25.26,-312.4 110.11,-568.5 282.89,-811.03 282.47,-396.51 685.06,-619.86 1186.7,-661.1l4.65 -768.06c-861.05,14.97 -1670.56,574.12 -2023.3,1335.85 -141.73,306.06 -187.92,535.32 -220.85,901.95zm2244.72 1364.73l-1.08 -755.25c-113.35,-52.4 -150.58,-22.04 -281.29,-153.69 -39.33,-39.61 -67.79,-68.09 -95.66,-121.33 -23.88,-45.62 -32.37,-111.09 -58.14,-156.13l-753.52 -2.65c19.33,635.07 579.47,1158.51 1189.69,1189.05zm-1190.69 -1362.72l754.52 0.17c48.57,-97.6 50.35,-256.13 278.3,-376.09 44.31,-23.32 113.7,-32.59 155.59,-61.28l1.37 -751.18c-640.34,52.72 -1151.75,545.37 -1189.78,1188.39zm1366.37 607.48l-3.63 756.08c626.69,-50.36 1154.82,-541.15 1189.16,-1189.55l-761.64 0.12c-27.04,144.86 -67.43,195.51 -144.46,280.08 -42.61,46.8 -66.22,62.84 -123.16,93.4 -56.95,30.57 -106.31,34.79 -156.26,59.87zm-3.37 -1044.68c42.27,27.91 112.95,38.62 157.29,62.07 41.96,22.2 100.12,65.66 125.58,91.28 126.89,127.53 116.54,221.6 153.31,281.99l753.7 2.26c-52.88,-645.06 -539.97,-1139.15 -1188.39,-1188.42l-1.51 750.83z"/>
 </g>
</svg>
