<?xml version="1.0" encoding="UTF-8"?>
<!DOCTYPE svg PUBLIC "-//W3C//DTD SVG 1.1//EN" "http://www.w3.org/Graphics/SVG/1.1/DTD/svg11.dtd">
<!-- Creator: CorelDRAW -->
<svg xmlns="http://www.w3.org/2000/svg" xml:space="preserve" width="163.476mm" height="217.124mm" version="1.1" style="shape-rendering:geometricPrecision; text-rendering:geometricPrecision; image-rendering:optimizeQuality; fill-rule:evenodd; clip-rule:evenodd"
viewBox="0 0 1163.61 1545.48"
 xmlns:xlink="http://www.w3.org/1999/xlink"
 xmlns:xodm="http://www.corel.com/coreldraw/odm/2003">
 <defs>
  <style type="text/css">
   <![CDATA[
    .fil1 {fill:#115173}
    .fil0 {fill:#115173;fill-rule:nonzero}
   ]]>
  </style>
 </defs>
 <g id="Layer_x0020_1">
  <metadata id="CorelCorpID_0Corel-Layer"/>
  <path class="fil0" d="M32.69 1543.15l27.98 0 0 -123.43 0.58 0 23.32 123.43 26.81 0 23.32 -123.43 0.58 0 0 123.43 30.31 0 0 -163.02 -45.76 0 -20.4 116.68 -0.58 0 -20.4 -116.68 -45.76 0 0 163.02zm156.81 0l48.96 0c32.06,0 47.8,-14.21 47.8,-40.29l0 -82.44c0,-26.08 -15.74,-40.29 -47.8,-40.29l-48.96 0 0 163.02zm32.06 -23.29l0 -116.45 16.32 0c10.2,0 16.32,4.19 16.32,15.84l0 84.77c0,11.64 -6.12,15.84 -16.32,15.84l-16.32 0zm86.27 23.29l84.81 0 0 -23.29 -52.75 0 0 -139.73 -32.06 0 0 163.02zm92.97 0l29.73 0 5.83 -31.91 36.43 0 0 -0.47 5.83 32.37 32.06 0 -33.23 -163.02 -43.43 0 -33.23 163.02zm39.35 -54.03l13.99 -80.58 0.58 0 14.28 80.58 -28.85 0zm95.02 54.03l42.55 0 14.57 -109.92 0.58 0 14.57 109.92 39.93 0 20.69 -163.02 -27.69 0 -14.28 125.3 -0.58 0 -15.16 -125.3 -34.98 0 -15.16 125.3 -0.58 0 -14.28 -125.3 -30.9 0 20.69 163.02zm136.69 0l29.73 0 5.83 -31.91 36.43 0 0 -0.47 5.83 32.37 32.06 0 -33.23 -163.02 -43.43 0 -33.23 163.02zm39.35 -54.03l13.99 -80.58 0.58 0 14.28 80.58 -28.85 0zm85.98 54.03l28.56 0 0 -119.01 0.58 0 38.47 119.01 32.94 0 0 -163.02 -28.56 0 0 97.58 -0.58 0 -31.19 -97.58 -40.22 0 0 163.02zm169.63 2.33c30.89,0 47.22,-14.9 47.22,-40.06l0 -23.06 -30.31 0 0 24.92c0,10.71 -6.41,14.9 -16.03,14.9 -9.62,0 -16.03,-4.19 -16.03,-14.9l0 -91.06c0,-10.71 6.41,-15.14 16.03,-15.14 9.62,0 16.03,4.43 16.03,15.14l0 18.86 30.31 0 0 -17.23c0,-25.15 -16.32,-40.06 -47.22,-40.06 -30.89,0 -47.22,14.9 -47.22,40.06l0 87.57c0,25.15 16.32,40.06 47.22,40.06zm93.27 -2.33l32.06 0 0 -69.4 38.76 -93.62 -31.19 0 -21.86 59.85 -0.58 0 -21.86 -59.85 -34.1 0 38.76 93.62 0 69.4z"/>
  <g id="_3124297808992">
   <path class="fil1" d="M80.68 290.65c0.38,4.58 25.59,51.21 29.88,59.8 10.22,20.45 19.01,40.32 27.77,61.92 8.43,20.8 15.73,43.93 23.27,66.42 7.53,22.45 13.63,47.01 19.85,71.64 27.6,109.43 37.29,228.96 37.29,346.63 0,15 1.44,31.37 -0.76,45.89l-5.11 91.77c-1.61,12.26 -3.96,30.65 -4.83,43.61 -2.64,39.49 -25.04,162.98 -25.16,168.59l49.51 -16.84c73.42,-24.43 238.6,-57.06 314.44,-60.32 36.22,-1.56 53.31,-5.37 96.83,-5.37 68.9,0 110.85,-1.88 180.32,9.74 27.32,4.57 48.45,8.78 74.05,17.4 6.07,2.04 16.45,6.37 23.53,6.95 0,-32.07 23.16,-100.18 37.65,-129.18 12.28,-24.56 30.1,-54.59 49.75,-74.02l21.97 -21.07c-7.07,-0.16 -7.89,-1.79 -21.52,-1.79 -56.84,0 -103.21,6.12 -157.01,15.12 -55.52,9.29 -178.02,38.83 -233.15,57.34l-86.98 27.78c-70.66,23.56 -121.3,43.41 -189.32,72.49 -7.71,3.3 -12.53,5.68 -19.96,8.73 -6.2,2.54 -13.66,5.87 -20.03,8.66 -5.78,2.53 -15.97,7.74 -21.46,9.02 0,-33.87 3.72,-84.89 3.54,-118.45 -0.16,-30.06 8.33,-87.73 9.01,-114.78 0.22,-9.01 1.55,-18.45 2.82,-27.68 8.24,-60.14 13.48,-132.17 22.39,-194.69l16.19 -138.1c0.69,-8.48 2.62,-18.2 3.38,-27.11 4.5,-52.68 13.39,-117.82 16.19,-170.38 5.02,-94.11 8.03,-193.27 -12.56,-281.69 -5.25,1.9 -7.99,6.74 -13.31,13.6 -46.55,60.03 -141.05,128.29 -207.8,161.65 -6.94,3.47 -12.67,5.62 -19.75,8.95 -6.46,3.04 -14.02,6.17 -20.91,7.78z"/>
   <path class="fil1" d="M44.82 278.09c9.87,-0.82 40.11,-12.99 49.03,-17.32 63.94,-31.06 108.8,-59.87 161.18,-106.04l49.24 -49.41c5.7,-6.83 9.85,-11.72 15.44,-18.64l29.91 -38.24 14.99 42.42c16.79,57.33 17.44,143.07 17.35,207.03l-6.74 109.87c-4.48,33.14 -6.39,94.91 -12,135.11l-37.22 316.2c-10.08,90.85 -19.4,178.05 -19.4,276.62 5.93,-3.14 11.72,-5.33 18.54,-8.36l138.2 -55.47c26.92,-10.42 53.99,-18.73 81.49,-27.9l62.33 -20.15c130.63,-38.61 334.28,-93.04 467.57,-68.3 8.44,1.57 14.6,4.18 22.54,4.35 -4.97,6.8 -30.9,12.03 -63.2,44.4 -9.44,9.46 -17.51,17.16 -25.7,28.11 -38.82,51.86 -67.08,138.64 -67.08,201.99 -7.98,-1.86 -35.32,-20.62 -100.85,-33.64 -77.38,-15.37 -123.4,-13.01 -200.36,-13.01 -13.42,0 -23.44,0.32 -34.33,1.53 -5.85,0.65 -11.79,-0.05 -17.67,0.26 -110.06,5.67 -285.74,38.39 -383.94,75.1l-53.53 19.99c0.56,-6.71 2.81,-13.05 4.34,-20.78 17.64,-89.21 24,-135.86 33.59,-226.54 0.68,-6.4 0.96,-17.08 2.01,-24.9 5.51,-41.15 6.46,-152.91 3.19,-192.56 -0.61,-7.43 0.32,-15.76 -0.09,-23.24 -0.45,-8.32 -1.69,-11.12 -1.77,-21.55l-8.2 -83.3c-14.8,-101.97 -34.66,-197.41 -76.05,-291.7 -14.67,-33.43 -27.22,-60.43 -46.1,-92.02 -5.59,-9.35 -15.84,-23.16 -16.7,-29.93zm-44.82 -16.15c7.27,13.76 34.66,47.42 53.79,86.12 31.12,62.98 45.1,91.37 67.51,169.27 19.21,66.77 30.35,126.73 38.43,196.58 3.04,26.31 7.02,62.36 6.96,88.12l1.85 120.15c0,54.17 -8.19,160.51 -17.93,217.09l-17.43 99.17c-5.7,33.8 -14.67,64.83 -22.01,96.38 5.78,-1.54 21.47,-11.16 26.95,-14.3 17.07,-9.78 75.7,-31.59 92.06,-37.05 162.39,-54.18 504,-109.55 680.14,-34.27 36.59,15.64 38.75,24.98 54.28,35.39 0,-119.7 36.23,-256.46 147.51,-300.92 11.2,-4.47 37.72,-12.75 51.5,-13.05 -21.02,-31.41 -95.16,-46.65 -136.26,-46.65 -97.57,0 -133.76,4.85 -229.05,23.77 -73.35,14.57 -203.91,49.99 -278.12,76.93l-75.8 26.41c-13.14,4.9 -24.67,8.92 -37.92,14.09 -12.65,4.94 -23.21,9.32 -35.84,14.37l-37.14 14.87c0,-55.79 14.62,-213.83 24.05,-282.73 6.29,-45.92 11.36,-92.62 16.86,-137.43l15.7 -138.58c6.33,-45.34 8.13,-96.76 13.05,-141.24l2.11 -35.56c-0.07,-30.96 5.24,-81.55 3.54,-113.1l-4.08 -73.06c-2.84,-22.32 -5.67,-46.56 -9.81,-67.33 -4.28,-21.48 -10.06,-41.19 -17.86,-59.27 -6.26,-14.49 -19.54,-38.44 -31,-46.12 -14.31,27.06 -26.58,44.77 -45.06,67.94l-35.17 40.15c-39.66,39.62 -78.8,70.84 -127.64,100.13 -34.19,20.5 -98.55,50.42 -138.16,53.72z"/>
  </g>
 </g>
</svg>
