<?xml version="1.0" encoding="UTF-8"?>
<!DOCTYPE svg PUBLIC "-//W3C//DTD SVG 1.1//EN" "http://www.w3.org/Graphics/SVG/1.1/DTD/svg11.dtd">
<!-- Creator: CorelDRAW -->
<svg xmlns="http://www.w3.org/2000/svg" xml:space="preserve" width="234.634mm" height="153.096mm" version="1.1" style="shape-rendering:geometricPrecision; text-rendering:geometricPrecision; image-rendering:optimizeQuality; fill-rule:evenodd; clip-rule:evenodd"
viewBox="0 0 3741.91 2441.55"
 xmlns:xlink="http://www.w3.org/1999/xlink"
 xmlns:xodm="http://www.corel.com/coreldraw/odm/2003">
 <defs>
  <style type="text/css">
   <![CDATA[
    .fil0 {fill:#115173}
   ]]>
  </style>
 </defs>
 <g id="Layer_x0020_1">
  <metadata id="CorelCorpID_0Corel-Layer"/>
  <g id="_2379308492656">
   <g>
    <path class="fil0" d="M1212.15 625.55c54.13,49.2 100.24,110.98 135.1,145.45 18.7,18.49 36.21,29.62 44.67,54.55 -27.89,22.25 -186.17,195.91 -223.08,236.59l-221.91 237.75c-23.6,25.38 -43.53,39.83 -63.52,69.18 -45.37,66.62 -23.88,146.77 30.37,182.73 74.76,49.56 431.37,211.95 521.74,268.8 -14.13,31.24 -46.18,75.62 -64.86,107.33l-136.46 221.03c-21.62,33.7 -50.07,76.26 -67.34,111.62 -49.28,100.86 44.7,207.19 149.95,175.17 65.72,-19.99 110.86,-123.15 158.77,-198.65 39.48,-62.23 257.26,-402.22 263.75,-447.27 16.51,-114.55 -95.55,-144.82 -173.44,-185.3 -68.69,-35.69 -174.68,-96.98 -238.15,-119.24 19.81,-31.36 227.42,-246.17 268.32,-292.49 27.7,-31.38 68.81,-66.1 89.4,-98.34 46.15,22.29 268.1,236.35 316.53,252.72 92.41,31.24 145.73,-47.2 185.37,-83.99l219.81 -204.2c21.78,-22.9 51.07,-38.92 65.12,-78.05 43.17,-120.25 -107.8,-224.18 -210.8,-118.71 -28.46,29.15 -48.1,43.29 -74.01,69.11 -32.34,32.22 -50.66,44.38 -74.21,68.78 -26.54,27.49 -46.9,45.95 -73.55,67.27 -58.2,-47.33 -140.84,-134.94 -196.65,-184.33 -16.98,-15.02 -33.02,-27.55 -49.01,-43.16 -19.83,-19.34 -29.23,-30.87 -48.71,-48.23l-296.46 -280.78c-33.99,-38.16 -62.31,-64.05 -97.36,-96.68 -41.08,-38.24 -66.05,-56.6 -144.02,-39.01 -102.82,23.21 -205.6,49.04 -309.6,73.57 -105.14,24.79 -235.81,31.21 -237.34,150.79 -0.72,55.48 35.41,97.64 75.22,113.75 49.22,19.92 114.08,-3.07 161.69,-14.58l314.68 -73.19z"/>
    <path class="fil0" d="M962.84 1665.64c-160.74,-61.06 -152.39,-130.16 -179.8,-169.93l-151.61 188.42c-12.86,16.53 -26.05,31.41 -38.63,48.18 -18.64,24.85 -19.43,24.21 -56.45,30.73 -111.72,19.71 -343.96,60.98 -436.86,83.89 -97.7,24.09 -133.62,140.77 -61.29,212.53 64.16,63.65 184,19.69 275.75,2 97.6,-18.81 192.63,-37.02 291.65,-56.13 124.95,-24.12 112.17,-25.71 204.43,-142.61l115.02 -145.52c14.53,-18.57 29.82,-33.26 37.78,-51.58z"/>
    <path class="fil0" d="M1916.32 203.51c-141.69,17.72 -263.34,143.94 -242.88,308.29 17.29,138.93 146.57,258.88 308.38,238.45 139,-17.54 257.79,-145.7 238.18,-306.31 -16.65,-136.4 -143.24,-260.5 -303.68,-240.43z"/>
   </g>
   <rect class="fil0" x="1909.42" y="1664.43" width="513.89" height="734.69"/>
   <rect class="fil0" x="2538.45" y="985.24" width="513.89" height="1413.89"/>
   <rect class="fil0" x="3167.47" y="350.25" width="513.89" height="2048.87"/>
   <polygon class="fil0" points="3424.42,0 3583.17,188.36 3741.91,376.72 3424.42,376.72 3106.92,376.72 3265.67,188.36 "/>
  </g>
 </g>
</svg>
