<?xml version="1.0" encoding="UTF-8"?>
<!DOCTYPE svg PUBLIC "-//W3C//DTD SVG 1.1//EN" "http://www.w3.org/Graphics/SVG/1.1/DTD/svg11.dtd">
<!-- Creator: CorelDRAW -->
<svg xmlns="http://www.w3.org/2000/svg" xml:space="preserve" width="216.483mm" height="200.172mm" version="1.1" style="shape-rendering:geometricPrecision; text-rendering:geometricPrecision; image-rendering:optimizeQuality; fill-rule:evenodd; clip-rule:evenodd"
viewBox="0 0 2672.41 2471.06"
 xmlns:xlink="http://www.w3.org/1999/xlink"
 xmlns:xodm="http://www.corel.com/coreldraw/odm/2003">
 <defs>
  <style type="text/css">
   <![CDATA[
    .fil0 {fill:#115173}
   ]]>
  </style>
 </defs>
 <g id="Layer_x0020_1">
  <metadata id="CorelCorpID_0Corel-Layer"/>
  <g id="_2379645747216">
   <path class="fil0" d="M2672.41 2410.25l0 -50.46c-13.72,-24.86 -14.51,-49.09 -34.54,-72.48 -83.26,-97.24 -318.27,-64.39 -334.23,-197.96 -9.16,-76.64 25.76,-42.06 57.43,-153.07 13.28,-46.52 16.74,-31.01 44.93,-59.5 19.11,-19.33 34.46,-40.25 34.12,-78.15 -0.46,-52.43 -19.27,-24.14 -19.07,-88.46 0.14,-40.35 -0.38,-60.63 -12.22,-96.78 -77.39,-236.24 -446.26,-211.32 -484.9,36.84 -4.82,31.07 3.03,71.7 -6.93,97.91 -23.85,62.74 -24.9,96.28 41.74,148.28 17.52,13.68 12.7,6.25 20.26,31.83 24.54,82.99 34.14,73.43 54.08,107.77 13.68,23.59 5.97,66.74 -4.86,89.31 -21.4,44.57 -78.31,59.7 -136.49,77.65 -124.01,38.26 -226.17,53.67 -220.47,206.8 58.58,47 332.96,66.84 430,59.96l30.73 -193.74c6.21,-42.56 -6.23,-26 -13.77,-59.7 6.81,-12.86 40.53,-47.73 53.11,-54.14 12.4,6.33 46.34,40.87 53.53,54.14 -7.25,30.67 -18.75,19.67 -14.61,55.1 4.62,39.51 23.53,174.95 34.14,197.76 101.38,8.04 361.24,-13.75 428.01,-58.9z"/>
   <path class="fil0" d="M-0 2371.12l0 38.62c66.72,46.98 327.37,66.26 430.91,60.13 7.8,-43.93 13.79,-86.09 20.84,-130.98 3.34,-21.14 7.03,-42.62 9.97,-62.9 6.09,-42.04 -5.71,-26.63 -13.95,-59.7 6.55,-12.62 40.87,-47.67 53.31,-54.18 12.4,6.35 46.26,41.1 53.37,54.18 -7.54,30.08 -18.81,19.65 -14.57,55.1l30.48 198.72c109.32,0.56 360.09,-7.27 430.95,-60.09 9.44,-244.12 -291.89,-160.32 -357.02,-284.87 -37.64,-71.98 7.27,-92.34 33.94,-154.47 9.63,-22.47 13.1,-56.41 32.11,-72.26 50.38,-41.98 78.73,-74.74 46.44,-146.6 -11.9,-26.45 -3.62,-68.77 -8.56,-101.4 -41.26,-271.95 -498.07,-284.65 -497.2,59.76 0.16,67.34 -54.44,96.48 15.03,166.87 32.43,32.86 29.94,10.15 46.12,63.56 33.34,110.06 67.94,74.96 55.42,153.01 -9.93,61.87 -55.06,80.2 -114.42,99.19 -65.53,20.94 -184.46,46.1 -223.28,100.3 -22.83,31.89 -16.64,47.77 -29.9,78.01z"/>
   <path class="fil0" d="M1263.14 1021.25c15.51,-29.18 17.34,-91.82 23.19,-128.77 3.3,-20.8 6.75,-41.94 10.17,-63.9 5.37,-34.46 -4.82,-30.73 -14.23,-58.12 9.87,-18.85 36.01,-51.18 53.94,-56.89 17.54,6.45 43.37,38.1 53.49,56.89 -9.83,27.75 -19.51,18.51 -14.79,54.88 5.24,40.55 22.83,175.31 34.36,196.19 92.62,2.69 285.07,-10.49 376.63,-36.31 52.51,-14.81 59.42,-23.81 45.7,-83.72 -36.84,-160.9 -281.1,-120.57 -344.16,-209.09 -53.51,-75.12 6.65,-130.18 15.43,-146.88 9.16,-17.38 15.71,-31.95 21.42,-51.48 20.54,-70.37 23.15,-28.88 58.54,-77.29 26.04,-35.61 29.86,-67.44 10.09,-111.71 -17.36,-38.88 9.56,-140.23 -60.71,-216.15 -139.76,-151.02 -379.97,-101.28 -436.65,86.07 -12.36,40.83 -3.58,99.33 -14.39,126.54 -17.24,43.33 -22.41,68.91 4.1,109.12 35.73,54.16 43.22,13.67 61.77,79.3 9.81,34.7 23.97,63.32 45.76,90.01 20.32,24.92 13.1,80.48 -5.75,109.38 -59.44,91.07 -305.69,51.36 -345.24,207.97 -13.81,54.66 -12.96,70.23 36.51,85.67 87.09,27.17 297.88,42.68 384.81,38.3z"/>
   <path class="fil0" d="M1336.21 1655.26c63.92,43.67 250.47,209.78 327.09,270.44 16.62,13.16 36.43,34.4 64.41,37.18 34.28,3.42 57.49,-16.8 67.16,-39.57 24.32,-57.27 -39.41,-94.63 -67.7,-118.83 -35.57,-30.4 -71.8,-59.74 -108.8,-89.65 -12.4,-10.03 -212.23,-169.49 -215.5,-187.55 -7.13,-39.15 11.09,-350.89 -7.37,-388 -22.35,-44.97 -79.34,-47.59 -108.56,-16.14 -14.51,15.61 -17.88,36.94 -17.97,64.67 -0.3,106.2 4.2,219.08 0.62,324.28 -1.33,39.01 -30.14,44.75 -76.64,85.97l-261.66 218.48c-24.68,20.48 -70.96,45.96 -56.85,99.49 11.33,42.98 66.68,60.27 105.68,32.84 13.54,-9.54 31.59,-25.48 42.76,-35.49l222.19 -184.94c24.86,-21.68 61.51,-55.08 91.13,-73.19z"/>
  </g>
 </g>
</svg>
