<?xml version="1.0" encoding="UTF-8"?>
<!DOCTYPE svg PUBLIC "-//W3C//DTD SVG 1.1//EN" "http://www.w3.org/Graphics/SVG/1.1/DTD/svg11.dtd">
<!-- Creator: CorelDRAW -->
<svg xmlns="http://www.w3.org/2000/svg" xml:space="preserve" width="223.582mm" height="209.059mm" version="1.1" style="shape-rendering:geometricPrecision; text-rendering:geometricPrecision; image-rendering:optimizeQuality; fill-rule:evenodd; clip-rule:evenodd"
viewBox="0 0 2230.38 2085.5"
 xmlns:xlink="http://www.w3.org/1999/xlink"
 xmlns:xodm="http://www.corel.com/coreldraw/odm/2003">
 <defs>
  <style type="text/css">
   <![CDATA[
    .fil0 {fill:#115173}
   ]]>
  </style>
 </defs>
 <g id="Layer_x0020_1">
  <metadata id="CorelCorpID_0Corel-Layer"/>
  <g id="_2201895606288">
   <path class="fil0" d="M331.66 1462.48c2.66,1.52 5.22,3 7.65,4.38 18.07,10.27 35.97,20.86 53.84,31.47 24.88,14.76 50.17,30.57 75.56,45.02 4.49,-4.33 8.88,-8.92 11.74,-11.83 14.03,-14.26 27.67,-28.96 41.45,-43.46 22.33,-23.49 60.1,-64.63 88.69,-78.69 48.67,-23.94 103.44,-18.24 146.51,14.4 18.32,13.88 33.9,34.25 42.52,55.56 5.73,14.17 8.57,24.85 9.73,35.24 11.99,-2.04 23.68,-1.85 36.37,-0.05 66.33,9.42 116.65,62.2 120.24,129.31 31.26,-1.02 62.36,8.79 87.77,28.8 30.27,23.83 47.4,57.42 52.39,93.84 5.81,-0.87 11.69,-1.29 17.88,-1.23 37.14,0.33 73.05,16.47 98.9,42.96 7.37,7.55 12.96,15.22 17.95,24.48 2.54,4.71 4.76,9.44 7.9,13.81 5.87,8.16 15.31,16.96 22.59,23.94 9.74,9.33 19.85,18.39 29.35,27.95 13.95,14.05 30.56,35.11 50.3,40.52 42.13,11.53 80.81,-24.57 69.01,-67.18 -5.45,-19.67 -27.15,-35.87 -41,-49.74 -18.45,-18.47 -36.96,-37.32 -56.12,-55.03 -9.46,-8.75 -30.8,-28.02 -35.32,-39.04 -11.75,-28.66 8.38,-60.26 40.33,-58.03 15.68,1.09 29.86,14.69 40.94,24.86 13.48,12.37 26.52,25.37 39.47,38.29 13.61,13.57 27.14,27.25 40.85,40.72 8.14,7.99 17.62,17.8 26.61,24.74 45.03,34.77 105.31,-12.27 84.28,-63.58 -4.35,-10.62 -8.87,-14.86 -17.05,-22.72 -19.31,-18.55 -38.27,-37.44 -57.31,-56.27 -9.21,-9.11 -18.65,-17.98 -27.96,-26.99 -6.3,-6.11 -12.8,-10.43 -18.56,-17.5 -11.51,-14.13 -14.07,-31.1 -8.53,-48.44l5.87 -18.38 19.06 -3c18.25,-2.88 34.7,3.53 48.41,15.29 7.32,6.27 12.63,13.25 19.39,19.75 34.67,33.31 67.41,69.02 103.96,100.29 19.59,16.76 47.2,31.54 71.9,16.12 17.28,-10.78 28.04,-33.44 26.12,-53.6 -2.62,-27.49 -27.61,-43.87 -45.96,-61.39 -54.65,-52.17 -113.27,-101.61 -172.54,-148.43 -60.1,-47.48 -122.77,-93.81 -187.39,-134.96 -22.25,-14.17 -44.89,-27.57 -67.91,-40.44 -24.61,-13.76 -38.17,-26.02 -67.68,-27.6 -62.6,-3.36 -116.23,11.95 -174.79,31.17 -65.93,21.64 -124.89,41.22 -195.29,43.85 -44.85,1.67 -98.81,-2.57 -136.84,-28.75 -45.38,-31.24 -52.46,-81.41 -38.9,-132.13 3.34,-12.49 6.73,-24.13 16.13,-33.62 6.99,-7.06 14.97,-10.34 23.24,-15.28 73.01,-43.53 147.95,-83.67 226.59,-116.13 22.95,-9.47 46.32,-17.85 69.59,-26.49 -9.2,2.25 -19.56,5.58 -32.51,9.56 -26.57,8.17 -104.19,34.15 -128.31,37.76 -23.83,3.56 -46.43,10.71 -70.75,13.28 -25.11,2.65 -51.12,3.4 -75.95,7.62 -29.13,4.94 -68.55,10.45 -95.54,-3.62 -8.58,-4.48 -16.9,-9.39 -25.35,-14.1 -66.76,143.81 -132.86,287.93 -198.89,432.07l-0.13 0.28 -0.13 0.28c-4.83,10.02 -9.76,20.04 -14.42,30.17zm292.56 -1250.6c-12.81,213.52 9.41,416.99 96.15,604.91 19.14,41.47 38.75,77.57 63.65,113.02 4.68,6.66 21.17,27.63 24.16,35.76 -22.05,3.3 -45.23,10.55 -69.41,13.11 -24.08,2.54 -54.33,3.88 -77.9,7.88 -20.42,3.46 -57.1,9.25 -75.84,-0.52 -9.3,-4.85 -18.37,-10.28 -27.37,-15.23 -26.31,-14.45 -26.98,-22.68 -39.82,13.53 -67.15,144.63 -133.55,289.41 -199.96,434.38 -9.33,19.35 -18.76,38.29 -26.39,58.37 20.8,7.64 147.62,86.14 180.22,103.68 24.91,-12.99 113.98,-124.32 152.67,-143.35 38.9,-19.13 80.94,-13.65 113.8,11.26 13.81,10.46 25.92,26.31 32.41,42.35 10.68,26.42 8.7,35.28 6.35,64.56 24.13,-3.95 32.17,-14.69 64.35,-10.12 52.29,7.42 91.33,48.83 93.46,101.43 0.64,15.69 -3.39,24.07 -4.01,35.86 72.53,-29.33 155.53,26.71 144.68,123.23 17.42,-2.84 27.44,-9.7 48.27,-9.51 30.02,0.27 57.68,13.94 76.8,33.53 13.13,13.45 13.43,21.63 22.85,34.71 11.55,16.05 40.33,40.76 55.14,55.67 17.65,17.77 35.67,40.83 64.24,48.65 66.47,18.2 125.44,-40.67 107.42,-105.71 -7.88,-28.45 -29.49,-43.94 -49.01,-63.5 -17.9,-17.93 -41.33,-41.39 -57.02,-55.9 -4.67,-4.32 -26.47,-25.16 -27.61,-27.94 -3.25,-7.92 1.04,-15.52 9.21,-14.95 11.97,0.84 105.7,102.69 130.93,122.17 70.57,54.49 165.32,-19.77 132.35,-100.2 -6.43,-15.68 -13.27,-22.8 -24.32,-33.41 -21.13,-20.3 -38.32,-37.49 -56.98,-55.95 -9.62,-9.52 -18.75,-18.07 -28.18,-27.21 -11.9,-11.54 -24.61,-16.58 -19.06,-33.96 18.28,-2.88 29.78,15.67 41.26,26.69 34.91,33.54 68.48,70 105.29,101.5 84.77,72.54 155.55,-0.76 149.51,-64.21 -3.78,-39.73 -31.59,-58.23 -55.5,-81.06 -97.57,-93.15 -246.85,-212.08 -364.73,-287.16 -23.01,-14.65 -45.11,-27.75 -69.45,-41.36 -26.49,-14.82 -43.32,-29.5 -81.27,-31.54 -140.65,-7.56 -231.64,69.71 -372.92,74.99 -96.23,3.59 -170.14,-25.11 -144.34,-121.54 6.18,-23.12 7.11,-19.35 25.17,-30.11 71.08,-42.38 144.51,-81.88 222.51,-114.08 26.42,-10.91 52.76,-20.08 80.29,-30.48 16.36,-6.18 72.15,-23.72 82.76,-30.61 -4.82,-5.21 -13.31,-7.91 -20.3,-11.32 -52.31,-25.52 -72.34,-20.09 -126.8,-3.34 -12.55,3.86 -39.83,13.27 -51.13,14.46 -102.65,-125.56 -157.34,-286.61 -180,-451.89 -9.57,-69.83 -7.56,-133.17 -10.15,-204.06 52.64,-3.7 67.94,3.04 135.36,-9.16 42.4,-7.67 77.66,-15.97 116.03,-31.58 49.05,-19.94 97.64,-48.15 135.37,-84.09l37.76 -37.9c21.42,13.34 47.65,69.68 171.72,121.35 56.62,23.58 117.52,34.11 179.72,39.61 23.9,2.11 48.88,0.17 73.12,1.73 -2.53,68.66 -1.6,134.42 -9.91,202.24 -19.75,161.21 -79.11,334.65 -180.29,453.81 -11.09,-1.37 -36.33,-9.92 -49.5,-14.1 -68.53,-21.76 -93.11,-9.9 -158.75,14.69 -139.81,52.38 -238.2,80.26 -367.43,152.66 -13.13,7.36 -26.75,15.73 -41.19,23.12 -9.83,5.04 -34.17,16.4 -40.46,25.51 -5.77,8.36 -11.25,38.65 -7.95,53.14 19.42,85.22 198.3,45.1 253.94,28.57 87.71,-26.06 169.76,-63.32 268.39,-50.24 34.87,4.62 98.33,48.04 128.8,66.66 24.98,15.27 52.92,33.45 78.89,51.23 103.39,73.43 191.35,140.35 284.13,229.31 9.59,9.19 49.1,44.57 54.62,53.53 15.07,-12.36 71.86,-39.37 92.26,-50.56l70.32 -38.26c7.15,-3.92 14.75,-6.68 20.51,-12.42l2.57 -2.94c-6.4,-6.44 -107.94,-231.8 -119.37,-257.73 -7.47,-16.96 -110.61,-245.68 -119.12,-258 -30.06,3.89 -42.75,44.97 -129.11,29.37 -51.58,-9.32 -83.38,-9.35 -145.6,-23.01 1.76,-12.29 15.76,-26.35 22.53,-36.75 99.28,-152.59 138.28,-305.26 156.66,-488.08 7.3,-72.58 4.86,-152.99 1.56,-227.3 -26.85,-5.03 -159.52,31.58 -308.02,-36.69 -65.77,-30.24 -108.51,-65.58 -147.3,-121.17l-29.74 -47.14c-1.15,-1.75 -1.59,-2.41 -2.69,-3.67 -2.17,-2.48 -0.92,-1.16 -3.32,-3.11 -7.43,6.4 -12.92,17.6 -18.11,26.41 -16.6,28.18 -35.13,53.8 -57.86,76.6 -64.46,64.65 -152.52,96.12 -247.36,110.24 -67.03,9.98 -155.66,-3.9 -167.6,-1.37z"/>
   <polygon class="fil0" points="1687.25,874.81 1834.28,1198.18 1982.3,1520.31 1997.55,1515.34 2230.38,1410.46 2082.98,1087.97 1935.43,767.17 "/>
   <path class="fil0" d="M-0 1410.46l2.64 2.28c2.67,1.92 -0.62,0.08 4.06,2.73 1.93,1.09 4.79,2.18 7.21,3.2 41.66,17.52 226.09,101.37 234.11,101.65 4.86,-7.57 9.95,-21.7 13.9,-30.06l42.22 -92.03c33.63,-77.3 78.16,-167.83 113.32,-246.58 8.95,-20.05 19.03,-41.36 28.11,-61.45 36.05,-79.8 8,-18.9 77.2,-167.74 5.44,-11.84 17.53,-34.36 20.36,-47.73 -26.72,-11.83 -239.12,-107.2 -248.24,-107.56l-37.01 80.1c-5.85,14.05 -12.13,26.21 -18.06,39.25l-239.81 523.93z"/>
   <path class="fil0" d="M1044.85 679.28c-14.51,-9.51 -115.52,-118.86 -125.7,-122.54 -8.61,7.72 -69.82,68.01 -71.42,73.93 16.76,16.59 186.94,189.31 197.12,195.79 9.09,-4.5 226.66,-224.43 253.47,-251.25l84.37 -85.15c-2.27,-6.87 -62.81,-65.24 -71.52,-72.78 -8.72,3.76 -26.58,24.32 -34.34,32.06l-165.12 165.12c-10.98,10.95 -58.32,60.47 -66.86,64.83z"/>
   <path class="fil0" d="M827.53 1565.55c-44.11,0.09 -65.13,28.9 -89.72,53.47 -20.51,20.49 -91.24,86.21 -103.03,110.04 -26.75,54.09 9.1,124.89 77.7,124.71 43.57,-0.11 64.5,-29.24 89.11,-53.77 18.91,-18.84 93.15,-87.9 103.3,-109.94 27.45,-59.61 -11.73,-124.63 -77.37,-124.5z"/>
   <path class="fil0" d="M787.06 1955.88c6.64,3.93 10.77,8.89 16.56,13.29 4.47,3.4 10.97,7.21 17.74,9.99 16.1,6.62 34.1,6.04 52.22,4.34 5,-3.18 20.34,-3.82 40.49,-22.06l97.1 -96.76c23.84,-23.97 46.32,-42.41 44.89,-85.7 -1.18,-35.65 -24.42,-64.68 -53.89,-76.22 -37.19,-14.55 -73.07,-1.41 -96.56,22.28 -22.3,22.49 -116.56,112.39 -127.18,132.57 -27.96,53.16 7.7,89.74 8.63,98.27z"/>
   <path class="fil0" d="M757.85 1534.04c0.04,-42.1 -24.73,-73.35 -60.12,-83.38 -67.77,-19.22 -95.93,35.56 -117.64,53.35 -15.68,12.86 -86.53,83.92 -93.41,96.08 -0.23,0.4 -0.53,0.94 -0.76,1.34 -14.15,25.11 -22.22,45.24 -10.71,74.43 4.93,12.5 3.65,13.46 11.46,24.38 23.58,32.95 69.08,44.21 104.46,28.01 27.25,-12.47 88.89,-80.57 111.87,-103.55 25.67,-25.67 54.8,-46.11 54.84,-90.66z"/>
   <path class="fil0" d="M1107.13 1819.33c-34.76,7.91 -51.58,29.32 -77.08,55.66 -5.36,5.54 -10.44,10.53 -15.92,15.99l-51.09 51.19c-50.43,63.96 4.33,155.56 82.77,140.13 34.45,-6.78 54.29,-33.31 76.41,-55.45 50.25,-50.3 115.93,-95.23 74.71,-167.72 -15.12,-26.59 -52.75,-48.23 -89.79,-39.8z"/>
   <path class="fil0" d="M1134.23 2047.51c30.84,44.46 108.8,56.33 145.39,0.44 16.43,-25.09 20.04,-58.74 5.06,-86.77 -7.44,-13.92 -45.39,-54.09 -54.75,-57.25 0.75,74.78 -87.42,118.98 -95.7,143.58z"/>
  </g>
 </g>
</svg>
